<?xml version="1.0" encoding="UTF-8" standalone="no"?>
<!-- Created with Inkscape (http://www.inkscape.org/) -->

<svg
   version="1.1"
   id="svg2"
   width="4141.2402"
   height="2771.6001"
   viewBox="0 0 4141.2402 2771.6001"
   sodipodi:docname="vecteezy_map-of-ukraine-outline-map-vector-illustration_8726675.eps"
   xmlns:inkscape="http://www.inkscape.org/namespaces/inkscape"
   xmlns:sodipodi="http://sodipodi.sourceforge.net/DTD/sodipodi-0.dtd"
   xmlns="http://www.w3.org/2000/svg"
   xmlns:svg="http://www.w3.org/2000/svg">
  <defs
     id="defs6" />
  <sodipodi:namedview
     id="namedview4"
     pagecolor="#ffffff"
     bordercolor="#000000"
     borderopacity="0.25"
     inkscape:showpageshadow="2"
     inkscape:pageopacity="0.0"
     inkscape:pagecheckerboard="0"
     inkscape:deskcolor="#d1d1d1" />
  <g
     id="g8"
     inkscape:groupmode="layer"
     inkscape:label="ink_ext_XXXXXX"
     transform="matrix(1.3333333,0,0,-1.3333333,0,2771.6)">
    <g
       id="g10"
       transform="scale(0.1)">
      <path
         d="m 17739.6,20512.9 c 0,0 0.1,-0.1 0.1,-0.1 0,0 -0.1,0.1 -0.1,0.1 z M 6782.91,19401.1 c 0,0 0,0 0.02,0 -0.01,0 -0.02,0 -0.02,0 z m 5283.49,-786.3 v 0 z m -1328,-113.2 v 0 z m 10715.6,-951 v 0 z m 4820.8,-2176.2 c 0,0 0,0 0,0 0,0 0,0 0,0 z m 2918,-1408.1 v 0 c 0,0 0,0 0,0 z m 1056.5,-2497.1 v 0 z m 364.2,-178.6 c 0,0 0,0 0,0 0,0 0,0 0,0 z m -4.1,-46 v 0 z m -138.9,-1259.7 v 0 z m -19670.8,-487 v 0 z M 1406.68,9094.7 c 0,0 0,0 0.01,0 z m 2805.63,-127.6 c 0,0 0,0 0.01,0 z m 7982.59,-311.7 v 0 z m 457.4,-1347.1 v 0 z m 701.5,-1404.9 v 0 z m -1026.7,-879.5 v 0 z m 650.9,-1.6 c 0,0 -0.1,0 -0.1,-0.1 0,0.1 0.1,0.1 0.1,0.1 z m 1769.7,-2.8 v 0 z m 74.7,-94.3 v 0 z m 2149.9,-3.6 v 0 z m -11.8,-144.8 v 0 z m 2647.8,-575.5 v 0 z m 1992.8,-156.6 v 0 z M 11506.2,3914.9 v 0 z M 11041.1,3286 v 0 z m -3.2,-5.6 v 0 z m -491.2,-386.7 c -0.1,-0.1 -0.2,-0.1 -0.3,-0.2 0.1,0.1 0.2,0.1 0.3,0.2 z m 2.2,-117 v 0 z m 7413.8,-126.5 v 0 z m -4825.5,-410.8 v 0 z M 19796.9,201.902 c 5.3,-0.3 12,-0.402 16.3,-0.504 37.1,-0.5 74.2,-0.796 111.3,-1.097 72.1,-0.602 146.8,-1.199 220.6,-3.399 23.6,-0.8 47.2,-2.101 70,-3.3 81,-4.5 157.6,-8.7 225.2,12.101 76,23.195 140.4,86.496 198.7,151.399 174.9,194.898 384.1,377.699 605,528.8 215.8,147.598 447.7,175.698 625.6,183.698 15.7,0.7 31.2,1.1 46.4,1.6 60.2,1.7 107.8,3 155.4,20.4 82.4,30.1 140.2,53.2 190.5,99 76.7,69.8 133.2,158.6 199,267.4 l 4.2,7 c 51.7,85.4 105.1,173.7 173.9,253.7 7.5,8.8 14.8,17.6 22.1,26.3 51.8,62.4 116.3,140.1 234.2,160.8 174.8,30.7 379.9,-5.2 609.5,-106.7 30.6,-13.5 59.5,-27.9 87.4,-41.9 53.1,-26.5 103.3,-51.5 157.3,-66.5 88.4,-24.6 179.1,-34.5 269.7,-29.5 40.9,2.3 81.8,12.6 125.2,23.5 39.1,9.9 79.6,20.1 123.9,25.5 7.2,0.9 14.4,1.8 21.6,2.6 78.5,9.2 128.5,17.2 160.8,51.6 22.3,23.8 37.4,61.7 42.5,106.9 2.7,24.2 1.5,51.2 0.3,79.7 -1.6,36.5 -3.4,77.8 3,120.7 10.8,73.1 28.6,146.7 53,218.6 10.8,32 26.6,61.9 41.9,90.9 15.2,28.9 32.5,61.7 35.1,81.3 1.9,14.1 -14.3,41.9 -49,67.8 -7.8,5.9 -15.8,11.8 -23.8,17.9 -87.5,65.8 -178.1,133.9 -271.6,133.9 -0.2,0 -0.5,0 -0.7,0 -109.5,-0.4 -214.2,-87.5 -315.5,-171.8 -40.4,-33.5 -82.1,-68.2 -124.4,-97.6 -95.5,-66.5 -194.9,-129.7 -295.6,-188 -5.5,-3.1 -10.9,-6.3 -16.3,-9.5 -43.3,-25.4 -92.4,-54.2 -154.4,-66.3 -30.4,-6 -60.2,-10.1 -89,-14 -23.1,-3.2 -45,-6.2 -66.4,-10 l -488.3,-82.2 c -99.9,-16.9 -236.6,-40 -345.2,65.8 -98.8,96.2 -101.6,244.2 -103.7,352.3 -0.2,10.2 -0.4,20.2 -0.6,29.8 -1.5,50.9 2.6,98.8 6.6,145.2 5.3,61.8 10.3,120.1 1.1,176.9 -8.4,52 -38.3,178.1 -133.1,224.8 -90.3,44.5 -175.8,99.4 -258.5,152.5 -52.5,33.7 -102,65.5 -152.7,94.9 -157.1,91.1 -227.9,254.2 -267.5,369.1 -44.5,130.7 -88.6,282.2 -50.8,431.5 15.6,61.6 46.1,105 90.8,129 80.4,43.2 167.7,8.1 231.4,-17.6 17.4,-7.1 37.2,-15 47.4,-17.2 39.9,-8.5 70.4,-2.5 80,7.7 0.1,0.2 9.8,13.4 0.7,63.8 -8.6,47.1 -29.4,100.5 -44.5,139.5 -2.9,7.3 -5.5,14.2 -8,20.6 -8.2,21.5 -20.2,53 -15.9,91.9 4.1,36.1 21,67.5 47.7,88.5 45.6,35.7 98.9,28.7 130.7,24.5 4.4,-0.6 10.4,-1.4 12.5,-1.5 39,-0.5 70.6,0 91.6,10.9 13.5,7 35.4,48.4 37.4,94.9 0.2,6.8 0.2,14.8 0.1,23.2 -0.3,27.4 -0.7,61.4 11,97.8 34.1,106.3 134.7,115.5 177.6,119.5 6.7,0.6 13.4,1.2 20,2.1 l 1.7,0.2 c 64.4,8.9 125.4,17.4 185.3,30.4 0.1,1.5 0.1,2.8 0.2,4 3.8,92.9 8.2,187.3 12.5,278.6 3.5,75.9 7,151.9 10.3,227.9 1.1,26.2 3,70.1 29.9,110.6 26.2,39.5 72.5,62.4 126.9,62.7 0.4,0 0.8,0 1.2,0 56,0 105.6,-23.9 133,-64 28.4,-41.7 23.6,-85.2 21,-108.5 l -0.3,-3.1 c -11.2,-104.8 76.1,-199.4 166.9,-230.3 162.8,-55.3 282.5,68.8 354.2,182.6 7.5,12 15.3,30.8 23.5,50.7 22.1,53.5 49.6,120.1 114.7,159.6 47.6,29 98.2,29.1 131.7,29.1 41.5,0 82.8,0.3 124.2,0.6 81.9,0.6 166.6,1.2 250.5,-0.6 16.6,-0.3 33.2,-0.8 49.8,-1.2 109.8,-2.9 213.5,-5.7 309.8,21.3 69.6,19.5 135.7,55.8 205.6,94.1 10.1,5.6 20.2,11.1 30.3,16.6 74.1,40.3 148.8,68.5 221,95.8 19.1,7.2 38.2,14.4 57.4,21.9 61.4,23.9 122.8,47.6 184.3,71.2 156.3,59.9 317.8,122 473.9,188 170.1,72 303,143.5 418.4,224.9 84.8,59.8 163.5,127.5 246.7,199.3 53.9,46.4 109.7,94.5 167,139.8 7.9,6.3 17.8,15.2 28.3,24.7 39.5,35.6 88.7,79.9 150.3,93.3 44.8,9.8 87.3,3.2 124.9,-2.6 16.9,-2.6 34.3,-5.2 45.6,-5.1 52,0.7 103.9,-0.7 154.1,-2.2 27.5,-0.7 55.1,-1.5 82.6,-1.9 106.8,-1.6 213.6,-2.9 320.4,-4.1 55.5,-0.7 110.9,-1.4 166.4,-2.1 6.8,0 23.2,-0.2 36.1,0.8 17.1,113.2 34.6,230 46.5,344 2.1,20 3.9,40.1 5.7,60.3 9.1,103.1 18.6,209.6 66.2,312.6 28.8,62.5 35.4,100.7 39.7,177.1 1.6,30.1 3.4,60.1 5.1,90.2 3.5,60.5 7.2,123 10,184.3 1.1,22.8 2.5,53.9 16.8,86.8 24.9,57.4 77.2,90.6 155.2,98.6 l 1.9,0.2 c 131.8,11 266.3,26.2 396.3,40.9 72.1,8.1 146.5,16.5 220,24.2 0.8,0 1.6,0.1 2.6,0.2 0.6,15.3 0.2,32.3 -0.4,50.1 -0.5,19.7 -1.1,40.1 -0.3,61.3 1.5,40.1 2,87.1 -5.8,131.6 -9.6,54.9 -16.6,135.7 33.6,203 56.5,75.8 150.2,69.9 206.2,66.4 10.5,-0.6 20.4,-1.3 27.3,-1.2 71.6,0.7 147.1,2.3 230.6,4.8 142.1,4.3 286.8,10.8 426.7,17.1 l 36.8,1.6 c 147,6.6 282.9,14.1 415.5,22.8 72.1,4.7 143.5,9.9 212.2,15.3 14.5,1.1 29.3,1.5 45,1.9 17.7,0.5 49.6,1.3 70.3,5 -0.8,8.7 -2.2,18.5 -3.2,25.6 -3.1,21.9 -6.2,44.5 -4.9,68 3.9,66.5 14.9,134.5 33.5,207.9 28.5,112.4 76.7,217.4 143.2,312.1 13.3,19 27.9,36.9 42,54.2 57.9,71.2 68.4,93.8 56.4,120.8 -12.3,27.7 -51.7,50 -93.4,73.6 -13.7,7.7 -27.7,15.7 -41.6,24.3 -17.9,11 -55,34 -73.1,78.6 -13.7,33.9 -12.6,70.1 3.1,101.9 19.2,38.8 57.1,66.2 112.6,81.3 21.9,6 46.4,8.2 74.7,10.8 6.7,0.6 14.9,1.3 23.6,2.3 -2.6,2.6 -5.1,5 -7.4,7.3 -17.7,17.2 -36,35 -51.3,55.4 -58.2,78.1 -105.8,151.3 -145.4,223.7 -100.6,184.1 -146.7,361.2 -137.1,526.5 10.3,176.5 117.5,322.6 286.7,391 16.6,6.7 33.2,11.9 49.9,16.3 -46.4,1.6 -103.1,5.9 -156,16.1 v 0 c -137,26.8 -185.6,85.9 -198.7,140.7 -38.8,61.8 -51.5,137.5 -34.1,207.5 18.6,75 69.8,136 140.2,167.5 58.6,26.2 117.9,31.5 170.2,36.3 39.3,3.5 76.5,6.9 105.5,18.7 178.5,72.3 308.2,245.9 401.2,389.1 1.1,1.6 2.7,4 4.4,6.8 -5.9,8 -13.5,16.8 -21.5,26 -16.5,19 -35.3,40.5 -50.7,67.9 -34.8,61.8 -63.5,131.9 -87.5,214.5 l -4.7,16 c -32.6,111.6 -77.4,264.5 -45.8,387.6 12.5,48.6 36.8,87.6 58.2,122 l 7.8,12.7 c 13.9,22.7 28.2,48.4 29,67.3 0.1,1.7 0.1,3.2 0.1,4.6 -13.8,0.6 -43.1,-1.5 -96.6,-18.5 -58.6,-18.5 -121.5,-46.8 -167.5,-67.5 -27.1,-12.2 -48.5,-21.9 -65.3,-28 -31.3,-11.4 -73.3,-23.7 -119.7,-16.7 -71.3,10.7 -106.9,62 -128.1,92.7 -2.8,4.1 -5.7,8.2 -8.6,12.1 -36.9,49.3 -73,99.9 -108,148.8 -17.5,24.5 -35,49 -52.7,73.4 -7.7,10.8 -15.8,23.4 -24.2,36.8 -12.4,19.5 -39.8,62.8 -57.1,77.6 -62,-2 -123.6,-4.2 -185.3,-6.5 -31.9,-1.2 -63.8,-2.3 -95.7,-3.5 -85.6,-3 -203,-7.1 -299.7,67.8 -118.8,91.9 -136.5,242.2 -142.5,364.6 -57.1,-41.6 -115,-81.9 -171.5,-121.2 -32.2,-22.5 -64.4,-44.9 -96.4,-67.5 -15.1,-10.6 -37.8,-26.6 -68.1,-34.9 -53.7,-14.8 -127.9,-8.9 -176.6,102.8 -2.1,4.9 -4.3,9.9 -5.8,12.7 -16.6,31.8 -38.6,64.8 -69.1,103.9 -52.6,67.2 -109.8,123 -170.2,165.9 -53.6,38.1 -110,61.7 -167.6,70 -34.7,5.1 -72.4,3 -112.3,0.8 -46.9,-2.6 -99.9,-5.6 -155.6,3.2 -110.4,17.3 -205.1,78 -274,175.3 -3.2,4.5 -6.4,9.2 -9.7,14 -10.6,15.3 -31.5,45.3 -44.7,55.7 -13,-7.3 -28.4,-23.9 -42.3,-38.7 l -190.8,-204.5 c -6.6,-6.9 -14.6,-17 -23.1,-27.7 -41.1,-51.7 -117.7,-148 -238.1,-115.7 -73.8,19.7 -122.8,75.1 -155.2,111.7 -18,20.3 -36.1,40.7 -54.3,61.1 -261.2,293.9 -531.4,597.7 -642.4,994.5 -9.4,33.8 -14.7,69.2 -19.8,103.4 -7.1,47.6 -14.5,96.9 -31.5,124.7 -0.2,0.2 -0.3,0.5 -0.4,0.7 -5,0 -14.1,-0.7 -31.8,-3.7 -128.2,-21.6 -243.8,-75.4 -349.6,-130.3 -207,-107.6 -421.4,-182.9 -674.7,-237.1 -188.2,-40.2 -381,-65.6 -573,-75.4 -162.2,-8.3 -354.7,0.4 -552.2,128 -72.5,46.8 -136.7,102.9 -190.9,166.5 -9.4,11 -18.6,22.5 -28,34 -31.2,38.9 -60.7,75.6 -93.7,87.9 -20.3,7.6 -48.4,6.5 -78.9,-3.1 -25.7,-8 -52.4,-21.6 -80.7,-35.9 -22.2,-11.3 -45.2,-23 -70.2,-33.4 -93.1,-38.5 -189.1,-83.4 -285.4,-133.3 -52.1,-27 -130.8,-67.8 -222.4,27.8 -21.4,22.3 -37.4,45.8 -51.5,66.6 -8.2,12.1 -15.9,23.5 -23.6,32.9 -49,60.3 -98.1,120.4 -147.2,180.6 l -123.2,150.8 c -4.6,5.7 -9.8,11.6 -15.1,17.7 -33.6,38.7 -83.9,96.5 -86.6,172.8 -8.4,78.4 22.5,149.2 50.6,202.5 3.9,7.3 7.9,14.6 11.9,22.1 21.5,39.6 43.7,80.6 43.2,113 -0.5,31.2 -9.6,66.2 -19.2,103.2 -4,15.2 -8,31 -11.8,47.2 -17.2,75.4 -7.5,140.4 1,197.8 3.8,25 7.3,48.7 8.6,72.6 l 0.3,5 c 12.5,222.5 24.2,432.8 -89.2,611.3 -50.6,79.2 -113.3,151.1 -167.9,210.9 -17.4,19.1 -33.2,39.6 -48.5,59.4 -29.1,37.6 -59,76.3 -88.1,88.8 -31.5,13.5 -79.7,5.9 -132.3,-21 -85.6,-43.5 -166,-96.3 -251.1,-152.3 -44.4,-29.1 -90.4,-59.3 -136.8,-87.9 -79.4,-48.7 -165.4,-54.2 -230.1,-14.6 -61.6,37.7 -95.9,110.9 -94.2,200.8 0.3,15.9 1.8,31.8 3.2,47.2 1.6,17.1 4.4,47.5 1.8,61.2 -3.8,0.8 -10.3,1.9 -20.8,2.2 -88.1,2.5 -184.2,7.6 -302.3,16.2 -112.1,8.1 -453.1,32.9 -484.3,305.4 -9.7,85 10.5,165.9 33.7,240.7 3.3,10.5 6.6,21.1 10,31.8 32.9,104.2 70.2,222.4 50.2,317.6 -14.9,70.9 -75.8,113.6 -174.2,175.5 -18.8,11.9 -38.3,24.1 -57.2,36.9 -13.8,9.3 -42.5,28.6 -58.4,64.9 -13.6,31.1 -14,66.1 -1,98.6 14.1,35.3 42.4,64.1 77.7,79 43.8,18.5 96.1,22.9 142.3,26.7 18.5,1.6 35.9,3 48.7,5.1 25.4,4.1 51.5,8.8 76.7,13.4 39.5,7.2 80.4,14.6 122.1,20.4 9.4,1.3 15.7,2.9 19.7,4.3 -0.3,8 -1.9,20.2 -3.1,29 -1.4,10.8 -3.1,23 -3.9,35.8 -4.1,60.5 -0.4,121.2 4.2,177.8 l 0.8,9.8 c 1.9,21.8 3.6,42.3 1.5,58.1 -1.3,9.4 -2.1,15.6 -30.3,32.6 -32.8,19.7 -71.3,38.5 -112.1,58.4 -88,42.9 -187.8,91.5 -258.8,166.9 -76,80.7 -75,165.1 -74.3,233 0.2,14.8 0.3,28.8 -0.2,42.8 -3.6,90.7 -13.1,163.7 -29.7,229.8 -27.9,110.6 -89,265.6 -221.6,375.9 -214,178 -525.7,203.9 -926.5,76.8 -29.9,-9.5 -59.8,-19.2 -89.7,-28.8 -207.2,-66.8 -421.4,-136 -649.1,-152.6 -334.1,-24.5 -592.1,27.3 -766.7,154 l -8.3,6.1 c -8.7,6.4 -17.7,13 -23.9,16.1 -19,5.7 -67.5,6.2 -97.3,1.2 0.2,-2.9 0.5,-5.7 0.7,-8.2 l 0.2,-2 c 12.9,-139.5 39.9,-429.9 -116.2,-574.4 -64.4,-60.2 -152,-100.3 -260.1,-118.7 -140.7,-23.9 -296.1,-9.4 -475.2,44.2 -60.4,18.1 -118.5,41.5 -174.6,64.2 -77.6,31.3 -150.8,60.9 -225.3,75 -118.1,22.6 -243,22.1 -361,-1.3 -52.5,-10.5 -103.1,-30.6 -156.6,-51.8 -39.3,-15.6 -80,-31.8 -123.5,-44.9 -49.7,-14.9 -100.7,-31 -150,-46.5 -55.9,-17.6 -113.6,-35.7 -171,-52.8 -117.4,-34.9 -240.9,-74.5 -346.9,-139.9 -95.5,-58.9 -157,-138.2 -228.2,-230 -28.7,-36.9 -58.3,-75 -91.3,-113.2 -14.1,-16.3 -28.9,-31.7 -43.2,-46.6 -37.3,-39 -72.6,-75.8 -81.8,-113.8 -19.2,-79.8 -22,-166.7 -24.9,-258.8 -2.2,-68.5 -4.4,-139.3 -13.9,-209.2 -23,-169.1 -38.3,-341.3 -45.6,-511.7 -0.4,-9.2 -0.4,-22.7 -0.4,-38.4 0.1,-108.3 0.2,-272 -101.2,-348.5 -33.1,-25 -89.9,-49.9 -172.5,-26.9 -66.1,16.5 -109.5,63.5 -138.3,94.8 -67.2,72.8 -135.7,147.8 -203.7,222.8 -51.3,56.6 -92,98.1 -149.1,116.3 -76.1,24.3 -152.3,13.2 -255.1,-37.2 -9.2,-4.6 -18.8,-9.5 -28.7,-14.5 -91.8,-46.6 -230.6,-117.1 -363.2,-50.9 -64.8,32.4 -103.8,86.1 -135,129.2 -35.6,49.1 -53,69.5 -81.5,73.8 -31.7,4.7 -74.6,-17.9 -117.9,-62 -10.9,-11 -24.9,-26.7 -41.2,-44.8 -93.6,-104.1 -219.3,-243.9 -354.8,-243.9 -10.3,0 -20.7,0.8 -31.2,2.5 -49.1,8.1 -117.1,39.5 -162.2,143.5 -71.8,165.8 -110.6,338.9 -148.2,506.3 l -3.3,14.7 c -21.1,4.2 -71.4,-4.2 -96.7,-8.3 -14.1,-2.4 -27.5,-4.6 -40.8,-6.3 -79.2,-10.2 -149.2,-31.8 -208,-64.1 -121.7,-66.9 -150.7,-166.4 -194.4,-316.9 l -7.9,-26.9 c -29.6,-101.1 -94.1,-119.5 -129.9,-121.5 -24.6,-1.4 -107.6,3.2 -145.2,119.5 -9.7,30.2 -17.9,61.7 -26.6,95.1 -16.4,63.3 -34.6,133.4 -62.5,181.2 -40.2,-72.3 -90.5,-118.9 -195.8,-129.8 l -173.6,-17.9 c -32,-3.2 -91.6,-9.4 -144.8,25.5 -86.8,57 -62.8,172.2 -47,248.5 2.7,12.9 6.4,30.5 6.8,36.3 2,38.7 1.6,75.6 -1.1,110.6 -7.6,-11.3 -15.3,-22.9 -23,-34.5 -87,-131 -185.5,-279.5 -390.2,-306.3 -71.8,-9.3 -145.5,5.5 -207.33,41.7 -49.6,29.1 -78.24,68.8 -101.25,100.7 -3.16,4.3 -6.26,8.6 -9.33,12.8 -3.21,-22.4 -4.16,-47.2 -5.14,-72.9 -1.31,-34.1 -2.66,-69.4 -9.03,-105.8 -4.7,-26.8 -15.68,-89.6 -69.04,-129.2 -57.16,-42.4 -139.7,-38.7 -200.72,8.8 -38.24,29.8 -63.8,69.5 -86.36,104.5 -9.04,14.1 -17.58,27.3 -25.32,37.3 -34.36,44.2 -65.24,75.1 -97.2,97.2 -66.32,45.9 -160.9,42.2 -261.01,38.2 -30.68,-1.2 -62.36,-2.5 -93.63,-2.2 -42.48,0.3 -95.35,0.7 -148.41,21 -143.5,54.9 -147.92,197.5 -150.56,282.6 -0.72,23.1 -1.39,44.9 -3.99,61.8 -1.43,9.3 -4.82,15.7 -6.64,17.9 -8.52,2.5 -35.16,-1 -51.27,-3.1 l -4.75,-0.6 c -234.56,-30.1 -450.35,19.7 -669.13,78.1 -115.54,30.8 -227.49,71.2 -335.76,110.3 -93.11,33.6 -189.39,68.4 -284.71,95.6 l -3.44,1.1 c -12.7,4.1 -25.45,8.4 -38.25,12.7 -76.49,25.5 -148.72,49.6 -219.46,56.1 -5.72,0.5 -11.67,1 -17.78,1.5 -82.33,7 -195.1,16.5 -266.6,97 -6.16,6.9 -12.13,14.3 -18.07,21.6 -5.54,6.9 -13.58,16.8 -18.22,21 -5.09,0.6 -14.47,0.5 -20.45,0.5 -81.42,-0.3 -164.03,0 -243.91,0.3 -144.04,0.6 -292.97,1.2 -438.72,-2.2 -65.17,-1.6 -160.95,3 -241.1,60.2 -15.12,10.8 -28.34,20.9 -40.01,29.8 -47.27,36 -59.66,45.4 -111.4,45.3 l -263.99,-2.1 c -19.17,-0.2 -38.57,0.5 -57.32,1.2 -49.6,1.7 -100.9,3.6 -132.42,-11.6 -42.63,-20.6 -82.59,-51.1 -124.89,-83.4 -54.76,-41.8 -111.37,-85 -183.09,-115.3 -93.76,-39.5 -191.21,-35.8 -277.2,-32.5 -29.16,1.1 -56.69,2.1 -82.86,1.5 -28.13,-0.6 -56.26,-1.4 -84.4,-2.2 -87.98,-2.5 -178.95,-5.1 -269.84,-2.3 -29.74,0.9 -61.03,4.7 -91.28,8.5 -60.68,7.5 -129.47,16 -163.26,-3.7 -22.54,-13.1 -38.9,-54 -44.9,-112.1 -1.16,-11.2 -2.18,-22.4 -3.19,-33.5 -7.51,-81.9 -16.01,-174.8 -75.35,-260.9 -36.48,-52.9 -80.78,-92.7 -123.6,-131.1 -25.2,-22.7 -49.01,-44.1 -69.23,-66.5 -10.15,-11.3 -20.46,-23.4 -31.04,-35.8 -67.61,-79.1 -160.22,-187.4 -299.75,-191.5 -108.67,-3.2 -203.94,30.4 -288.09,60 -63.59,22.4 -123.67,43.6 -183.58,47.9 -22.73,1.7 -45.79,6.4 -68.09,11 -18.5,3.8 -50.65,10.4 -67.27,9.9 -0.64,-7.8 0.17,-23 7.22,-45.9 57.52,-186.1 64.72,-378 71.69,-563.6 1.33,-35.8 2.67,-71.5 4.38,-107 7.01,-146.6 83.72,-244 180.83,-367.2 16.75,-21.3 34.06,-43.2 51.38,-66 146.79,-192.8 260.18,-338.4 367.66,-472 10.82,-13.5 23.29,-27.3 36.48,-42 29.39,-32.7 62.71,-69.8 87.2,-113.8 31.81,-57.2 40.87,-119.5 25.53,-175.4 -34.26,-124.8 -163.95,-146.7 -233.62,-158.5 l -13.11,-2.3 c -6.92,-1.2 -12.17,-2.5 -16.05,-3.8 2.14,-5.4 5.7,-12.4 11.17,-20.2 40.59,-58.1 75.93,-118.1 110.1,-176.1 16.52,-28 33.6,-57 50.84,-85 5.59,-9.1 12.05,-18.7 18.89,-28.9 26.48,-39.2 59.42,-88 69.16,-151.4 12.27,-79.7 -14.36,-155.6 -37.86,-222.4 -7.55,-21.6 -14.69,-41.9 -19.48,-59.6 -5.97,-22.2 -10.52,-47.6 -15.33,-74.5 -13.02,-72.7 -27.76,-155 -79.55,-224.7 -96.9,-130.4 -249.42,-165.2 -383.99,-195.9 -67.34,-15.4 -130.95,-29.9 -181.11,-54.3 -101.33,-49.3 -184.91,-123.2 -273.4,-201.4 l -24.74,-21.8 c -97.64,-85.9 -198,-185.8 -306.8,-305.4 -199.54,-219.3 -381.32,-458.4 -550.41,-684.6 l -5.33,-7.1 c -74.21,-99.3 -152.8,-206.8 -254.81,-348.5 -25.9,-36 -54.53,-72.3 -82.22,-107.4 -58.23,-73.8 -118.44,-150.1 -154.54,-225.1 -22.55,-46.9 -36.01,-104.1 -39.99,-170 -5.23,-86.5 -3.21,-177.8 -1.25,-266 1.11,-50.2 2.27,-102.1 2.11,-153.3 -0.12,-40 -1.33,-80.7 -2.51,-120 -5.76,-193.3 -11.2,-375.8 103.7,-514.1 47.49,-57.2 119.25,-143.5 135.43,-243.9 8.94,-55.5 -15.67,-111 -61.24,-138.1 -43.93,-26.1 -88.7,-17.5 -107.83,-13.8 -65.11,12.4 -130.36,26.7 -193.458,40.5 -34.36,7.6 -68.719,15.1 -103.114,22.3 -13.882,3 -28.21,7.2 -43.378,11.8 -4.305,1.2 -9.645,2.8 -15.325,4.5 -10.285,-151.8 -68.277,-303.5 -119.812,-438.3 -10.52,-27.5 -20.879,-54.6 -30.621,-81.1 -141.09,-384.3 -326.449,-749.6 -476.231,-1030.4 7.715,-1.9 15.496,-3.9 23.102,-6.4 47.043,-15.2 134.621,-43.7 180.351,-128.1 17.371,-32.1 71.344,-137.9 78.704,-226 1.3,-3.3 2.609,-6.5 3.843,-9.2 5.153,-0.5 14.516,-0.6 31.305,0.9 4.949,0.5 9.887,1 14.824,1.5 28.699,3 64.414,6.7 102.77,-0.2 88.679,-16 148.586,-79 185.937,-125 70.278,-86.6 150.383,-170.3 227.853,-251.3 21.21,-22.2 42.4,-44.3 63.44,-66.6 85.46,-90.3 175.19,-178.7 259.78,-261.6 3.31,-3.2 8.57,-8.4 13.51,-12.8 28.71,18.4 75.98,65.8 95.56,85.4 15.93,16 29.69,29.8 41.79,40.2 45.74,39.3 92.08,79.8 136.89,118.9 40.32,35.2 80.63,70.4 121.14,105.4 17.58,15.2 50.31,43.4 98.92,47.8 65.9,5.9 112.55,-35.9 132.49,-53.8 24.02,-21.5 47.94,-43.2 71.87,-65 121.52,-110.5 236.31,-214.9 369.36,-294.4 173.17,-103.5 388.03,-157.1 595.82,-208.9 l 45.91,-11.5 c 239.94,-60.3 470.41,-35.1 666.49,72.8 12.88,7.1 25.81,15.1 39.5,23.4 20.71,12.7 42.13,25.9 66.34,38 60.95,30.5 120.98,61.1 176.76,89.6 6.57,3.3 14.84,8.2 23.61,13.3 46.32,27.3 116.32,68.5 197.45,41.8 73.38,-24.2 119.08,-99.3 155.81,-159.6 10,-16.4 19.45,-32 26.23,-40.9 76.06,-100.6 157.84,-200.8 236.92,-297.8 38.02,-46.6 77.32,-94.8 115.66,-142.6 15.6,-19.4 28.89,-40 40.61,-58.3 6.05,-9.3 11.93,-18.4 17.67,-26.7 87.97,98 177.73,196.7 264.64,292.3 l 45.89,50.5 c 10.47,11.5 21.11,25.5 32.38,40.3 33.37,43.7 74.9,98.2 143.75,128 54.21,23.5 108.09,23.7 151.39,23.8 15.65,0.1 30.43,0.1 43.53,1.2 26.14,2.1 53.1,4.8 79.18,7.4 29.44,3 59.89,6 90.37,8.4 129.55,10.3 259.1,20.7 388.63,31.2 74.93,6.1 152.55,14.4 227.62,22.4 157.32,16.9 320,34.3 480.44,34.3 38.25,0.4 75.41,1.7 100.01,14 21.06,10.6 32.21,63.4 41.17,105.8 3.9,18.5 7.94,37.7 13.07,56.3 26.82,97.2 61.53,209.3 134.25,308.2 106.45,144.8 266.45,247.6 450.52,289.4 11.14,2.6 22.37,4.9 33.61,7.3 36.06,7.5 70.12,14.6 96.02,27.9 40.47,20.9 81.45,114.1 103.46,164.2 44.28,100.7 123.28,157.6 241.52,174 60.66,8.4 117.97,4.4 173.39,0.5 10.42,-0.7 20.83,-1.4 31.22,-2.1 29.86,-1.8 62.14,0.9 96.33,3.8 76.33,6.4 162.83,13.6 252.01,-27.2 22.87,-10.5 42.9,-22.9 60.59,-33.9 14.02,-8.7 27.27,-16.9 39.17,-22.4 46.99,-21.7 110.99,-18 175.59,10 41.23,17.9 79.7,45.5 120.42,74.7 51.3,36.8 104.33,74.9 171.14,100.9 119.94,46.7 240.26,58.6 347.92,34.6 134.56,-30 242.43,-113.6 321.38,-183.1 38.04,-33.5 77.44,-67.3 115.55,-99.9 113.79,-97.5 231.49,-198.3 337.19,-312.1 18.5,-20 28.3,-24.3 30.6,-25.2 5.9,0.7 21.5,7.4 31.9,11.9 13.9,6 29.6,12.7 47.4,18 25.8,7.7 51.5,14.1 76.4,20.3 20.2,5 39.4,9.8 58,15.1 19.8,5.6 49.8,14 84.2,11.1 62.8,-5.3 119,-45.7 150.4,-108.2 26.1,-51.8 37.1,-116 43.7,-166.1 l 1.1,-8.4 c 0.6,-4.3 1.3,-10 2,-14.5 4.5,-1.5 11.9,-3.1 22.4,-3.9 160,-10.9 320.1,-39.9 475,-68 57.4,-10.4 116.8,-21.1 174.5,-30.6 36.2,-6 85.7,-14.1 130.1,-47.3 68.9,-51.6 87.5,-129.4 101,-186.2 6.2,-25.8 12,-50.3 20.2,-64.8 22.5,-39.8 109.7,-44.2 179.7,-47.8 17.7,-0.9 36,-1.8 53.3,-3.2 10.6,-0.9 21.4,-1.6 32.2,-2.3 70.9,-4.7 151.3,-10 226.4,-59.4 56.5,-37.3 101.3,-96 129.7,-170 25.2,-65.7 47.4,-134.8 39.3,-195.3 -7,-52.6 -38.1,-90.6 -60.8,-118.4 -6.4,-7.9 -13,-16 -16.2,-21.1 -25,-39.8 -41.3,-91.3 -47,-148.7 -14.9,-148.5 17.7,-310 49.2,-466.1 7.1,-35.3 14.5,-71.9 21.1,-107.5 l 1.6,-8.4 c 21.4,-114.5 41.5,-222.8 121,-281.9 60.1,-44.8 136.3,-58.3 199,-35.3 l 1.2,0.5 c 22.1,8.1 68,24.9 117.9,0.6 33.6,-16.4 73.6,-53.5 73.4,-137.7 l -0.2,-91.1 c -0.5,-161.8 -0.9,-329.1 0,-493.3 0.2,-24.2 -1.7,-49.1 -3.5,-73.1 -3.9,-52.1 -8.3,-111.1 12,-134.3 17.3,-19.7 55.6,-38.3 89.4,-54.8 14.1,-6.8 28.7,-13.9 42.8,-21.5 23.6,-12.7 47.2,-25.7 70.8,-38.7 56.2,-31.1 109.3,-60.4 164.2,-85.8 13.1,-6.1 27.3,-12 42.4,-18.3 60.9,-25.5 130,-54.4 183.1,-114.1 41.3,-46.5 59,-105.9 73.3,-153.6 3.9,-13.3 7.6,-25.8 11.3,-36.3 45.4,-128.7 -17.2,-193 -58.5,-235.5 -11.3,-11.7 -22,-22.7 -31.6,-35.4 -11.3,-15 -18.3,-37.7 -20.1,-65.5 -2.1,-32.3 -1.5,-66 -0.9,-101.6 0.5,-27.7 1.1,-56.3 0.3,-85.4 l -0.1,-2.3 c -0.3,-12.4 -1,-35.8 1.2,-49 6.1,-2.4 13.6,-4.8 21,-7.2 4.7,-1.5 9.4,-3 14,-4.6 2.5,-0.8 244.1,-83.8 285.8,-241.3 16.1,-60.9 0.2,-122.2 -44.9,-172.7 -34,-38.2 -81.2,-64.4 -140.1,-78 -80,-18.4 -167.1,-11.7 -259,19.9 -56.9,19.6 -105.3,49.8 -152,79.1 -41.2,25.7 -80.1,50 -117,61.2 -5.1,-2.2 -20.1,-11 -47.5,-45.2 -4.2,-6.2 -14.7,-25.5 -22.4,-39.7 -53.7,-98.9 -114.5,-210.9 -218,-179.5 -82.7,25.1 -97.3,125.7 -111.4,223 -1.7,11.3 -3.9,26.7 -4.9,31.1 -9.2,36.2 -22.4,79.4 -43.9,93.4 -28.3,-13.8 -82.1,-94.6 -105.7,-129.9 -53.5,-80.2 -99.7,-149.5 -173.2,-161.5 -35,-5.8 -70.2,3.3 -99,25.6 -39.9,31 -53.8,74.4 -60.8,104.4 -17.6,75.8 -10.9,148.5 -5,212.7 2.1,23.6 4.2,45.9 5.1,67.8 l 0.4,8.8 c 0.3,6.2 0.8,16.9 0.9,28 -70.9,-28.9 -134.3,-74.1 -201,-121.8 -39.3,-28.1 -80,-57.1 -123.8,-84 -37.3,-22.8 -37.4,-36.2 -37.5,-51.6 -0.4,-51 8.8,-103.9 18.5,-159.8 l 2.9,-17 c 1.9,-11.2 3.3,-22 4.7,-32.5 1.9,-14.6 4.9,-38.6 9,-46.8 71.1,-39.4 167.5,-105.6 192.4,-226.4 23.1,-110.8 -26.3,-196.9 -66,-266.1 -34.3,-59.8 -54.9,-98.6 -47,-142 l 1,-5.4 c 4.4,-23.1 11.8,-61.9 -6.5,-103.7 -17.6,-40.2 -53.8,-70 -99.5,-81.9 -55.9,-14.5 -113.6,-23.9 -169.4,-32.9 -33,-5.4 -64.2,-10.4 -94.6,-16.5 -3.5,-0.6 -8.8,-1.7 -13,-2.7 -11,-23.4 -11.6,-93 -11.8,-123.7 -0.3,-29.1 -0.5,-56.5 -3.7,-80.8 -3.5,-27.6 -8.4,-65.5 -28,-102.4 -32.4,-61.1 -89.4,-94.8 -135.3,-121.9 -16.5,-9.7 -32,-18.9 -42.8,-27.2 -56.9,-44.1 -116.3,-85.1 -173.8,-124.8 -20.2,-14 -40.4,-27.9 -60.4,-42 -4.3,-3 -10.9,-7.6 -14.8,-10.8 -2.1,-13.9 1.8,-45.5 4,-63.2 1.8,-14.5 3.7,-29.5 4.5,-44 4,-69.3 9,-138.7 13.3,-197.4 2.2,-29 5.7,-77.7 -22,-124.3 -29.3,-49.3 -89,-96.9 -207.1,-43.8 -3.9,1.7 -7.6,3.4 -11.1,4.8 -15.6,6.3 -34.4,6.5 -50.2,0.8 -17.7,-6.5 -36.6,-21 -58.4,-37.9 -24,-18.4 -51.3,-39.4 -84.9,-55.5 -0.1,-0.1 -0.2,-0.1 -0.3,-0.1 l 84.5,-57.8 c 184.2,-125.9 374.3,-255.8 561.7,-384.7 0.6,1.3 1.3,2.6 2,3.9 21.3,41.5 47.8,93.2 103.6,134.8 94.2,70.1 191.2,31 255.3,5.2 18.7,-7.6 36.4,-14.7 50.9,-18.3 61.2,-15 132.3,-7.8 200.3,20.3 60.1,24.8 124.2,77.5 192,133.3 136.6,112.4 306.7,252.3 518.2,188.7 108.1,-32.5 189.4,-112 248.2,-177.6 27.9,-31.1 59,-61.2 91.9,-93.1 43.6,-42.2 88.1,-85.4 127.9,-133.7 3.8,55.3 6.3,111.2 8.9,168.9 1.5,33.3 3,66.6 4.7,99.9 1.4,24 -1.6,33.1 -2.5,35.3 -4.2,3.8 -17.2,10.7 -26,15.4 -8.3,4.4 -16.5,8.9 -24.5,13.6 -89.9,53.3 -178.4,168.8 -160.4,296.5 8.4,59.3 34,111.6 52.8,149.7 8,16.3 15.1,35.3 22.7,55.5 18.9,50.5 40.3,107.7 87.5,156.4 50.2,51.6 110.1,86.4 162.4,114.9 131.7,71.9 270.6,133.5 412.6,183.1 46.6,16.3 93.8,30.8 139.4,44.8 91.3,28 177.5,54.4 258.1,94 122.3,60 216.7,149.8 265.7,252.8 16.4,34.4 32.7,70.3 48.6,105 54.8,120.6 111.6,245.2 191.6,359 27.4,38.8 56.9,69.5 82.9,96.5 54.6,56.6 78.8,84.2 80.6,144.7 1.5,46 -3.6,72.3 -8,86.3 -1,3.1 -3.7,9.5 -6.2,15.1 -13.1,30.4 -35,81.2 -14.3,138.3 13.9,38.6 43.6,82.1 106.8,91 v 23.6 c -0.1,62.1 -0.1,124.3 0.3,186.4 0.3,53.9 1.1,197.1 123.6,248.1 27.8,11.6 54.1,14.1 73.3,15.9 26.5,2.5 53.3,4.4 79.3,6.2 75,5.3 145.8,10.3 208.9,28.7 32.2,9.4 64.3,19 96.5,28.7 72.6,21.7 147.7,44.2 223,63.7 102.2,26.5 206.4,50.7 309.7,72 105.3,21.7 194.5,27.5 309,33.3 229.1,11.6 528.3,16.7 811.5,-47.2 182.8,-41.3 349,-110.4 493.8,-205.3 51.9,-34 110.1,-77.5 149.1,-142.7 49.3,-82.2 52.1,-182.6 7.1,-255.7 -46.7,-76.1 -140,-118 -237.6,-106.8 -81.6,9.5 -190.1,57.1 -235.3,139.3 l -4.8,8.8 c -2.1,3.9 -4.8,9 -7.3,13.2 -3.2,-0.1 -6.4,-0.2 -8.1,-0.3 -101.1,-4.3 -208.1,-16.3 -323,-36.3 59.7,-5.5 120.4,-12.2 181.1,-23.2 19.8,-3.6 60.9,-11.1 93.2,-45.1 23.1,-24.2 34.3,-56 31.8,-89.5 -5.3,-67.8 -63.2,-117.7 -132.6,-171.2 -2.6,-2 -5.6,-4.3 -8.4,-6.5 37.6,-28.7 76.5,-57.6 114.4,-85.6 98.1,-72.6 199.4,-147.7 291.1,-232.1 64.1,-59.1 119.6,-103.5 182.7,-128.3 83,-32.7 178,-31 278.7,-29.2 36.7,0.6 74.6,1.3 112.5,0.3 75.1,-2.1 151,-6 224.4,-9.8 75.8,-3.9 154.3,-7.9 230.9,-9.8 349.6,-8.8 667.2,-10.4 970.8,-5 25.9,0.4 51.8,0.9 77.7,1.5 17.2,0.4 34.9,1.7 53.7,3.1 8.4,0.6 16.8,1.3 25.2,1.8 12.2,21.8 34.9,52.1 77.8,63.9 48.2,13.2 114.8,-1.9 157.2,-84 39.7,-76.8 79.2,-153.6 118.7,-230.4 11.5,-22.3 22.4,-44.8 33,-66.5 17.7,-36.4 34.4,-70.7 53,-103.3 4.6,-8 12.3,-19.6 20.5,-31.9 43.3,-65.4 102.7,-154.9 67.8,-243.6 -13.4,-34 -45.5,-78.5 -122.5,-96.9 -60.1,-14.4 -120.3,-21 -178.6,-27.4 -71.5,-7.9 -139.1,-15.3 -199,-36 -79.9,-27.7 -156.4,-65.5 -237.5,-105.6 -38.5,-19.1 -78.3,-38.8 -118.4,-57.2 -268.4,-123.5 -552,-256.9 -809.5,-411.4 l -3.7,-2.1 c -67.8,-36.7 -135.5,-73.6 -203.3,-110.6 -15.9,-8.7 -32.2,-16.7 -48,-24.5 -38.4,-19.1 -78.1,-38.7 -100.2,-62.2 -5.4,-5.8 -12.2,-19.7 -18.6,-33.5 93.2,-11.4 186.7,-23.8 277.7,-35.8 121.7,-16.1 247.6,-32.7 371.3,-47 87.6,-10 215,-33.4 310.3,-119.9 49.5,-44.9 77.7,-97.8 102.6,-144.4 12.6,-23.6 24.5,-46 38,-65.1 49,-69.2 97.3,-123.8 147.9,-167 57.2,-48.8 128,-82.6 203.1,-118.5 86.5,-41.3 176,-84.1 253.2,-153.9 362.2,-327.6 24.8,-882.699 -86.1,-1065.098 -11.2,-18.504 -16.9,-31.101 -18.4,-41.199 -4.5,-29.203 16.3,-73.203 36.3,-115.801 9.8,-20.8 19.9,-42.203 28.3,-64.3 39.1,-102.301 70.8,-188.102 93.7,-282.5 2.3,-9.403 4.4,-15.399 6,-19.2 z M 20312.4,0 c -37.2,0 -73.3,2 -107.7,3.89844 -22.7,1.20312 -44.2,2.40234 -65.5,3.0039 -71.6,2.19922 -145.2,2.79688 -216.2,3.39846 -37.5,0.3008 -75,0.5976 -112.4,1.1992 -26.6,0.3008 -66.9,0.9023 -106.8,22.3008 -48.1,25.8984 -80.9,73.8012 -97.5,142.5002 -20.3,83.601 -49.9,163.601 -86.6,259.5 -5.8,15.402 -14,32.699 -22.6,51.101 -29.2,61.899 -65.6,138.899 -52.4,225.399 7.1,46.199 27.2,83.699 43.9,111.301 250.2,411.498 288.7,673.898 121.1,825.498 -56.7,51.2 -130.1,86.3 -207.7,123.4 -82.8,39.5 -168.4,80.4 -244.5,145.4 -62.8,53.5 -121.5,119.5 -179.7,201.8 -20.4,28.9 -35.7,57.6 -50.6,85.4 -20.1,37.7 -37.5,70.4 -62.7,93.2 -41.5,37.7 -106.4,60.5 -204.2,71.8 -125.3,14.4 -252,31.1 -374.5,47.3 -111,14.7 -225.9,29.9 -338.7,43.2 -19.9,2.3 -66.5,7.8 -100.9,46.9 -40.2,45.6 -42.5,113.4 -5.9,172.8 5.3,8.6 10.9,20.6 16.7,33.3 12.7,27.6 28.4,62 56.1,91.5 45.5,48.5 103.4,77.2 154.4,102.4 14.8,7.3 28.7,14.2 41.3,21.1 67.4,36.7 134.7,73.5 202.1,109.9 265.1,159 553.4,294.6 826,420 37.7,17.3 76.3,36.4 113.6,54.9 82.7,40.9 168.3,83.2 259.6,114.8 80,27.7 161.5,36.7 240.4,45.4 45.6,5 89.2,9.8 130.5,17.9 -10.6,19.5 -25.8,42.4 -34.9,56 -9.9,15 -19.3,29.2 -27.1,42.7 -21.7,38.1 -40.6,77 -58.9,114.5 -10.5,21.7 -20.5,42.3 -31,62.6 -28.6,55.7 -57.2,111.3 -85.9,166.9 -29.7,-15.9 -59.3,-17.4 -75.4,-18.3 -11.6,-0.6 -23.1,-1.5 -34.6,-2.4 -20.4,-1.5 -41.4,-3 -63.6,-3.5 -26.2,-0.6 -52.3,-1.1 -78.5,-1.6 -306.4,-5.4 -626.6,-3.8 -979,5 -79.1,2 -158.8,6.1 -235.9,10.1 -72.3,3.7 -147,7.5 -219.9,9.5 -33.6,1 -67.7,0.4 -103.9,-0.3 -114.7,-2 -233.5,-4.1 -351.6,42.4 -95.8,37.7 -172.9,101.7 -241.9,165.4 -84.1,77.5 -181.3,149.4 -275.4,219.1 -44.3,32.8 -90.2,66.8 -134.5,101.1 -47.6,37 -72.7,80.2 -74.6,128.3 -2.8,75.2 54.2,126.9 73,143.9 2.1,1.9 4.3,3.9 6.7,5.9 -37,4.1 -74.7,7.3 -113.5,10.7 -47.9,4.2 -97.5,8.5 -146.9,14.5 -10.5,1.3 -24.5,2.2 -39.3,3.2 -46.5,3.1 -99.2,6.5 -142.9,25.3 -58.2,25 -90.6,72.8 -86.5,127.7 4.3,57.8 50.3,106.6 117.3,124.3 259.1,68.7 484.7,106.3 689.8,115 22.7,1 64.9,2.8 105.9,-18.5 47.4,-24.6 69.9,-66.4 84.8,-94.1 l 4,-7.4 c 7.3,-13.3 50.8,-37.4 90.6,-42 22.2,-2.6 46.5,5.3 54,17.5 7.6,12.4 4,38.1 -8.3,58.6 -19.3,32.2 -56.4,59.2 -90.3,81.4 -125.7,82.4 -270.9,142.6 -431.5,178.9 -260.6,58.8 -543,53.7 -759.9,42.7 -106.1,-5.4 -188.3,-10.6 -280.4,-29.6 -100.2,-20.7 -201.3,-44.1 -300.4,-69.8 -71.8,-18.6 -145.1,-40.6 -216.1,-61.8 -32.6,-9.8 -65.2,-19.6 -97.8,-29.1 -82.6,-24 -167,-30 -248.7,-35.8 -26,-1.8 -50.6,-3.6 -74.9,-5.9 -4.6,-0.4 -11.5,-1.1 -15.9,-1.8 -3.7,-7.1 -8.6,-25.6 -8.8,-74.1 -0.4,-61.7 -0.4,-123.5 -0.3,-185.2 v -55.3 c -0.1,-88.4 -41.5,-127 -76.1,-143.8 -6.9,-3.4 -13.7,-6 -20.3,-8 0.4,-1.1 0.8,-2.2 1.1,-3.3 13.3,-41.5 18.8,-90.6 17,-149.9 -4.3,-136.2 -76.1,-210.7 -133.7,-270.6 -23.4,-24.2 -45.4,-47.1 -64.4,-74 -69.8,-99.3 -120.5,-210.6 -174.1,-328.4 -16.2,-35.4 -32.9,-72.1 -50,-108 -67.3,-141.5 -192.9,-262.8 -353.5,-341.7 -94.1,-46.2 -191.7,-76.1 -286.1,-105.1 -45.9,-14.1 -89.2,-27.4 -132.5,-42.5 -132.2,-46.2 -261.5,-103.6 -384.2,-170.5 -41.9,-22.8 -85.4,-47.9 -117.1,-80.5 -19.5,-20.1 -31.7,-52.8 -45.9,-90.7 -8.8,-23.5 -17.9,-47.8 -30.1,-72.5 -17.6,-35.9 -31.3,-65.4 -35.2,-92.5 -4.6,-32.8 27.1,-81.6 69.2,-106.6 5.5,-3.2 11.2,-6.2 16.9,-9.3 24.6,-13.1 58.4,-31.1 85,-64.1 33.4,-41.6 47.8,-95.4 43.9,-164.6 -1.7,-32.5 -3.1,-65.3 -4.6,-98.1 -4.6,-102.4 -9.3,-208.3 -22.2,-313.9 -2.2,-18.5 -6.9,-56.9 -37.5,-89.5 -44.5,-47.3 -120.8,-53.5 -177.6,-14.4 -32.5,22.3 -49.9,51.5 -62.7,72.9 l -1.6,2.7 c -38.1,63.7 -96,119.7 -157.2,179 -33.9,32.8 -68.9,66.7 -101.2,102.8 -44.8,50 -99,103.7 -161.4,122.4 -106.8,32.1 -200.7,-36.6 -342.8,-153.4 -75.6,-62.3 -153.8,-126.6 -240.2,-162.2 -106.5,-44 -216.5,-54.1 -318,-29.2 -27.7,6.8 -53.7,17.3 -76.7,26.6 -27.7,11.1 -62.2,25 -70.8,18.6 -19.5,-14.5 -30.4,-34.7 -48.1,-69.2 -10.1,-19.7 -21.6,-42.1 -36.9,-64.9 -28.8,-42.8 -76.4,-67.5 -124.5,-64.7 -39.5,2.3 -67.4,21.6 -82.4,31.9 -198.3,136.6 -400.5,274.8 -596.1,408.5 l -154.8,105.8 c -19.3,13.1 -55.1,37.6 -71.2,84.2 -11.5,32.8 -9.2,67.7 6.3,98 30.2,59.1 98.5,79.5 143.7,93 6.2,1.8 14.6,4.3 18.1,5.6 15.3,7.6 32.1,20.5 49.8,34.2 30,23 63.9,49.2 109.1,65.7 52,19.1 110.5,20.6 163.7,5 -3.7,51.2 -7.6,108.3 -11,165.5 -0.4,8.3 -1.8,19.6 -3.3,31.6 -6.6,53.1 -15.6,125.8 22,186.5 20.6,33.1 49.3,53.2 68.2,66.5 20.4,14.3 41,28.5 61.5,42.7 55.4,38.3 112.6,77.8 165.4,118.7 20.3,15.7 41.8,28.4 62.6,40.7 25.3,14.9 56.8,33.5 64,47.2 3.5,6.4 5.8,24.6 7.5,37.8 1.7,12.9 1.9,35.8 2.1,58 0.8,91.2 1.8,216.1 92.1,278.8 31.2,21.7 64.1,28.2 85.9,32.5 33.6,6.6 67.9,12.2 101,17.5 40.1,6.5 78.6,12.8 115.1,20.6 -12.6,105 34,186.3 71.9,252.3 34,59.3 52.8,94.6 44.8,133.1 -7.2,34.6 -37.8,65.2 -99.5,99.3 -86.3,47.7 -97.6,135.6 -104.4,188.1 -1.1,8.4 -2.1,16.7 -3.5,24.7 l -2.8,16.6 c -10.7,61.8 -21.8,125.7 -21.3,193.7 0.7,90.4 42.7,159.8 128.3,212.2 38.1,23.4 74.2,49.2 112.5,76.6 80.8,57.7 164.3,117.3 269.2,154.3 24.9,8.8 52.3,16.7 84.6,15.5 38.9,-1.4 74.5,-17.6 100.3,-45.6 52.8,-57.5 48.7,-143 46.3,-194 l -0.4,-7.7 c -1.1,-26.7 -3.4,-52.4 -5.7,-77.4 -1.6,-17.2 -3.2,-34.2 -4.2,-50.8 33.2,49.9 70.8,105 115,145.2 99.1,90.1 187.3,64.2 231.1,40.7 99.4,-53.4 127.3,-162.8 140.7,-215.7 8.8,15.5 15.8,26.7 23.2,36 78.2,98 160.9,135.5 245.8,111.4 63.6,-18.2 117.1,-51.5 168.7,-83.8 39.4,-24.7 76.7,-48 113.1,-60.5 56.9,-19.6 110.3,-24.6 154.5,-14.4 19.1,4.4 34,11.4 41,19.3 0.6,0.6 1.1,1.1 1.5,1.6 -13.2,27.5 -90.5,82.1 -161.2,105.9 -3.8,1.2 -7.6,2.5 -11.5,3.7 -19.9,6.4 -44.6,14.3 -69.3,29.2 -89.2,53.5 -86.2,161.3 -84.7,213.2 v 2.2 c 0.7,24.8 0.3,50 -0.2,76.7 -0.7,38 -1.4,77.3 1.2,117.6 4.3,64.8 24.3,122.6 57.8,167.2 16.9,22.4 33.7,39.7 47.3,53.6 7,7.3 16.3,16.9 20.3,22.2 -0.4,2.8 -1.5,8.5 -4.8,17.7 -5.2,15 -9.8,30.4 -14.2,45.2 -9.3,31.3 -19.9,66.7 -33.2,81.6 -24.3,27.4 -68.1,45.7 -114.4,65.1 -16,6.7 -32.6,13.6 -48.9,21.2 -61,28.2 -119.6,60.6 -176.3,91.9 -22.9,12.6 -45.8,25.3 -68.7,37.6 -10.8,5.8 -23.1,11.7 -36.1,18.1 -50,24.3 -106.7,51.9 -149.2,100.5 -72.7,83.1 -64.5,193.1 -58.6,273.5 1.6,21.2 3.1,41.3 3,57.9 -0.9,165.1 -0.5,332.7 0,494.9 l 0.1,32 c -106.7,-18.5 -222.5,9.3 -314.9,78.1 -139.1,103.5 -169.7,267.7 -194.3,399.5 l -1.5,8.3 c -6.4,34.3 -13.3,68.5 -20.7,104.8 -34.2,169.9 -69.7,345.6 -52,522.6 8.8,87.7 34.1,165.4 75.2,230.9 9.4,15 20.3,28.3 29.9,40.1 6.6,8.1 16.2,19.9 19.8,26.2 0,10.4 -4.3,36.3 -28.5,99.4 -9.8,25.5 -27.6,60 -56.8,79.3 -33.2,21.8 -80.1,24.9 -134.5,28.5 -11.8,0.8 -23.6,1.6 -35.3,2.5 -14.3,1.2 -30.3,2 -47.2,2.9 -104.2,5.2 -261.6,13.2 -335.6,144.1 -21.3,37.9 -31,78.4 -39.5,114.2 -8,33.3 -16.1,67.7 -30,78.1 -7.2,5.3 -32.2,9.4 -47.1,11.9 -59.2,9.7 -119.4,20.6 -177.5,31.2 -149.8,27.1 -304.7,55.2 -454.2,65.4 -79.9,5.5 -141.6,38.9 -173.6,94.1 -19.1,33 -23.3,66.1 -26.3,90.2 l -0.9,7 c -2.5,18.8 -10.1,75.8 -25.1,105.8 -0.5,1 -1.1,1.9 -1.6,2.7 -3.9,-1 -8.3,-2.2 -11.5,-3.2 -21.7,-6.1 -43.2,-11.4 -64,-16.6 -23.9,-5.9 -46.4,-11.5 -68.1,-18 -7,-2.1 -16.3,-6.1 -26.3,-10.4 -28,-12.1 -66.3,-28.7 -113,-27.3 -86.5,2.4 -144.8,65.1 -163.9,85.7 -98.4,105.9 -206.8,198.8 -321.62,297.2 -38.58,33.1 -78.47,67.2 -117.46,101.6 -61.91,54.5 -144.82,119.6 -237.21,140.3 -89.42,19.9 -178.59,-3.3 -237.65,-26.3 -44.43,-17.3 -85.63,-46.9 -129.25,-78.2 -47.05,-33.7 -95.71,-68.7 -155.58,-94.6 -114.22,-49.6 -234.83,-52.6 -330.92,-8.1 -22.44,10.3 -42.16,22.6 -59.57,33.3 -14.18,8.8 -27.58,17.1 -39.59,22.6 -43.88,20.1 -96.35,15.7 -157.08,10.7 -39.41,-3.3 -80.17,-6.8 -123.68,-4.1 -10.98,0.7 -21.95,1.4 -32.93,2.2 -47.84,3.3 -93.01,6.5 -134.11,0.8 -59.3,-8.2 -78.66,-28.2 -93.63,-62.3 -35.88,-81.6 -90.1,-205 -190.48,-256.6 -48.81,-25.1 -99.45,-35.7 -144.13,-45 -10.13,-2.1 -20.26,-4.2 -30.31,-6.5 -141.57,-32.2 -258.99,-107.1 -339.54,-216.7 -48.19,-65.6 -76.49,-145.8 -104.17,-246.2 -3.59,-13 -6.87,-28.6 -10.33,-45 -16.48,-78.1 -39.04,-184.9 -142.06,-236.5 -60.87,-30.5 -124.36,-33.5 -184.17,-34.1 -151.16,0 -308.71,-16.9 -461.07,-33.2 -76.25,-8.1 -155.12,-16.6 -232.48,-22.9 -129.66,-10.5 -259.32,-20.9 -389,-31.2 -28.57,-2.3 -58.04,-5.2 -86.53,-8 -26.88,-2.7 -54.66,-5.5 -82.39,-7.8 -20.59,-1.7 -39.89,-1.7 -58.55,-1.8 -31.18,-0.1 -58.1,-0.2 -76.44,-8.1 -23.39,-10.2 -44.18,-37.4 -68.24,-69 -13.21,-17.3 -26.86,-35.2 -42.83,-52.8 l -45.91,-50.5 c -90.24,-99.2 -183.54,-201.9 -274.51,-303.3 -15.98,-17.8 -42.71,-47.6 -85.95,-61.1 -58.02,-18.1 -124.32,1.8 -168.88,50.8 -21.54,23.7 -38.41,49.9 -53.28,72.9 -10.08,15.7 -19.6,30.5 -29.03,42.2 -37.95,47.3 -77.01,95.2 -114.78,141.5 -80.15,98.3 -163.05,199.9 -241.2,303.3 -12.56,16.6 -24.43,36.1 -37,56.7 -13.26,21.8 -36.64,60.2 -52.03,75.3 -11.47,-4.1 -30.46,-15.3 -42.62,-22.4 -10.77,-6.4 -21.9,-12.9 -33.49,-18.8 -56.14,-28.7 -116.59,-59.5 -178.19,-90.3 -16.91,-8.5 -33.96,-19 -52.02,-30 -14.96,-9.2 -30.43,-18.7 -47.21,-27.9 -238.89,-131.5 -517.04,-162.8 -804.38,-90.7 l -45.62,11.4 c -210.91,52.6 -449.95,112.3 -647.29,230.2 -149.37,89.3 -276.64,205 -399.72,316.9 -21.09,19.2 -42.16,38.4 -63.32,57.4 -36.2,-31.3 -72.26,-62.8 -108.31,-94.3 -45.08,-39.4 -91.7,-80.1 -137.98,-119.9 -6.6,-5.6 -18.53,-17.6 -31.17,-30.3 -74.38,-74.5 -166.96,-167.3 -267.1,-142.9 -52.04,12.6 -86.56,46.4 -109.4,68.8 -85.91,84.1 -177.12,174 -264.877,266.8 -20.801,22 -41.75,43.9 -62.711,65.8 -80.098,83.7 -162.926,170.3 -238.067,262.9 -28.25,34.8 -52.527,54.2 -72.167,57.7 -11.786,2.2 -29.997,0.3 -49.293,-1.8 -5.707,-0.5 -11.411,-1.1 -17.102,-1.7 -37.633,-3.5 -137.637,-12.7 -198.508,69.8 -19.785,26.8 -30.097,55.4 -37.625,76.3 l -5.637,15.6 v 16.6 c 0,27.6 -25.402,97 -56.621,154.7 -8.406,15.5 -39.55,27.4 -71.949,37.9 -3.301,1.1 -11.328,3 -17.777,4.5 -23.891,5.5 -53.629,12.5 -81.6799,27.8 -52.2031,28.5 -80.40235,78.8 -75.4336,134.5 3.08594,34.7 17.2695,61.6 26.6523,79.4 149.7892,279.7 339.5862,649.7 481.6872,1036.8 10.028,27.3 20.684,55.1 31.508,83.5 51.875,135.7 105.528,276 108.735,405 1.91,77.1 41.347,137.3 102.929,157 52.223,16.7 109.356,-0.4 155.266,-14.1 10.805,-3.2 21.976,-6.5 28.211,-7.8 34.918,-7.4 69.759,-15 104.609,-22.7 30.9,-6.7 62.34,-13.6 93.87,-20.3 -17.47,25.1 -37.45,49.2 -53.56,68.6 -160.81,193.5 -153.728,431.3 -147.474,641.2 1.188,39.8 2.309,77.4 2.426,114.9 0.148,48.7 -0.977,99.4 -2.067,148.5 -2.042,92.1 -4.156,187.3 1.547,281.7 5.481,90.6 25.141,171.7 58.442,240.9 45.186,93.9 111.986,178.5 176.586,260.4 27.63,35 53.73,68.1 77.17,100.7 102.69,142.6 181.92,251 256.86,351.3 l 5.28,7 c 171.91,229.9 356.86,473.2 562.08,698.8 113.59,124.8 218.87,229.6 321.84,320.2 l 24.44,21.5 c 94.13,83.2 191.47,169.2 316.05,229.8 69.77,34 147.15,51.6 221.98,68.7 112.48,25.7 218.72,49.9 273.78,124 25.12,33.8 34.78,87.8 45.01,144.9 5.31,29.7 10.8,60.4 18.91,90.4 6.63,24.6 15.29,49.3 23.67,73.1 16.11,45.9 34.37,97.9 29.33,130.7 -3.27,21.2 -20.57,46.9 -38.88,74 -7.63,11.3 -15.52,23 -23.18,35.5 -18.21,29.5 -35.76,59.3 -52.74,88.1 -33.83,57.5 -65.78,111.7 -102.15,163.8 -53.1,76 -62.72,159.9 -25.72,224.5 28.96,50.5 80.57,82.6 153.4,95.5 l 14.36,2.4 c 21.16,3.6 69.94,11.9 82.34,22.6 1.06,6.2 -1.11,18.2 -8.58,31.6 -14.09,25.3 -37.59,51.5 -62.48,79.2 -14.33,15.9 -29.15,32.4 -43.23,49.9 -108.58,135 -222.92,281.8 -370.76,476 -16.38,21.5 -33.2,42.8 -49.47,63.5 -103.95,131.9 -211.44,268.4 -221.37,475.7 -1.73,36.2 -3.09,72.5 -4.46,108.9 -6.8,181.3 -13.22,352.5 -63.35,514.7 -29.67,96.1 -17.12,179.7 35.32,235.5 73.4,78.1 180.61,55.9 244.66,42.7 16.3,-3.4 33.14,-6.8 43.43,-7.6 85.29,-6.2 160.36,-32.6 232.96,-58.2 75.17,-26.5 146.1,-51.4 219.4,-49.3 55.36,1.6 109,64.4 160.87,125.1 11.21,13.1 22.8,26.6 34.31,39.4 26.95,30 55.67,55.7 83.44,80.7 36.21,32.5 70.4,63.2 94.14,97.7 31.1,45.1 36.41,103.1 42.57,170.3 1.08,11.9 2.17,23.8 3.4,35.7 12.85,124.5 59.41,210.9 138.39,256.8 89.1,51.8 196.08,38.7 282.05,28 27.17,-3.3 52.85,-6.5 73.83,-7.1 85.25,-2.6 173.36,-0.1 258.57,2.3 28.53,0.8 57.05,1.6 85.57,2.3 31.89,0.7 63.63,-0.5 94.33,-1.7 72.67,-2.7 141.28,-5.3 196.16,17.8 49.47,20.9 94.25,55.1 141.66,91.2 47.98,36.7 97.59,74.5 157.6,103.5 73.85,35.6 155.84,32.7 221.74,30.4 17.48,-0.7 33.96,-1.2 49.02,-1.1 l 264,2.1 c 116.15,1.1 170.69,-40.4 228.13,-84.2 11.07,-8.5 22.53,-17.2 35.25,-26.3 25.45,-18.2 66.69,-26.3 126.14,-24.9 148.41,3.5 298.69,2.9 444.02,2.3 79.49,-0.3 161.68,-0.7 242.31,-0.3 23.03,0.1 57.94,0.2 93.61,-14.3 45.96,-18.8 73.52,-52.8 93.64,-77.7 4.08,-5.1 8.12,-10.1 12.35,-14.9 21.1,-23.8 95.91,-30.1 140.61,-33.9 6.52,-0.5 12.87,-1.1 18.97,-1.6 92.71,-8.5 178.95,-37.3 262.35,-65.1 11.88,-4 23.72,-7.9 35.51,-11.8 100.94,-28.9 199.72,-64.6 295.28,-99.1 104.5,-37.7 212.55,-76.7 320.22,-105.4 207.37,-55.3 395.32,-99 595.9,-73.2 l 4.55,0.5 c 45.14,5.9 106.97,13.9 166.66,-18.3 55.1,-29.7 92.83,-86.6 103.49,-156 4.36,-28.3 5.25,-57 6.11,-84.8 2.69,-86.7 9.5,-103.8 28.58,-111.1 20.95,-8 51.95,-8.2 81.92,-8.4 26.71,-0.2 54.87,0.9 84.66,2 121.01,4.9 258.16,10.3 376.69,-71.8 48.31,-33.4 92.51,-76.9 139.07,-136.8 12.9,-16.6 24.15,-34.1 35.04,-51 4.29,-6.7 8.75,-13.6 13.23,-20.3 1.11,14.7 1.7,30.3 2.32,46.4 1.92,50.3 4.1,107.3 23.56,163.6 19.53,56.5 62.57,98.7 115.13,112.9 60.1,16.3 127.65,-5.9 176.35,-58 17.57,-18.8 31.27,-37.8 43.37,-54.5 18,-25 28.9,-39.5 43.3,-48 25.2,-14.8 56.8,-21 86.6,-17.2 113.1,14.8 171.1,94.4 256.5,222.9 33,49.7 67.1,101.1 107.9,147.5 58,65.7 116.6,60.4 146.4,51.3 31.3,-9.5 72.5,-35.3 91.3,-104.6 22.9,-84.7 31.8,-180.6 26.5,-285.1 -1,-19.5 -5.4,-40.6 -10.5,-65.2 -2.3,-11.3 -6,-29.2 -8.7,-45.7 l 168.6,17.3 c 33.3,3.4 34.6,3.6 56.3,46.7 39.5,78.4 93.5,101.8 131.9,107.6 51.6,7.9 105.7,-12.4 144.6,-54.2 58,-62.4 88.5,-146.2 111.6,-227.9 42.1,116.9 105.2,227.3 245.9,304.6 79.7,43.8 172.4,72.8 275.2,86 9.9,1.3 21.7,3.3 34.1,5.3 45,7.5 100.9,16.7 154.1,8.9 82.9,-12.3 140.7,-64.9 158.6,-144.3 l 3.7,-16.9 c 37.3,-166 72.5,-322.9 137.1,-472.3 9.3,-21.4 17,-29.2 19.5,-31.4 5.4,0.5 30.5,5 82.3,48.3 46.5,38.8 93.2,90.7 130.8,132.5 17.8,19.8 33.1,36.9 46.9,50.9 87.6,89.3 187.6,130.8 281.6,116.8 110.3,-16.5 166.3,-93.7 207.2,-150.1 23,-31.8 42.9,-59.2 66.1,-70.8 47,-23.5 127.6,17.5 192.3,50.4 10.7,5.4 21,10.6 31,15.5 92.4,45.4 234.1,99.7 396.6,47.7 110.2,-35.2 180.7,-113 232.1,-169.7 67.6,-74.6 135.8,-149.2 202.6,-221.6 10.9,-11.9 33.8,-36.7 44.7,-39.3 l 4.2,-1.1 c 4.4,-1.3 7.7,-1.8 9.8,-2.1 15.8,21.1 23.7,86.4 23.6,194.2 0,17.9 0,33.3 0.6,46.6 7.5,176.2 23.4,354.3 47.1,529.2 8.2,60.2 10.2,123.1 12.3,189.6 3.1,97.7 6.3,198.6 30.1,297.3 21.2,87.9 81.2,150.5 129.4,200.8 13.2,13.8 25.7,26.8 36.7,39.5 29.7,34.3 57.7,70.4 84.7,105.3 75.7,97.5 153.9,198.3 278.7,275.2 125.7,77.6 262.8,121.7 392.5,160.3 55.9,16.7 112.9,34.6 168.1,52 49.8,15.6 101.4,31.9 152.3,47.2 35.7,10.7 70.8,24.7 108.1,39.5 59.1,23.4 120.2,47.7 189.7,61.5 141.8,28.2 291.7,28.7 433.6,1.7 92.7,-17.7 178.2,-52.2 260.8,-85.6 54.5,-22 106,-42.7 158,-58.3 150.5,-45 277.7,-57.7 388.9,-38.9 70.7,12 125.3,35.7 162.4,70.5 87.7,81.2 65.1,325.7 56.5,417.7 l -0.2,1.9 c -2.8,30.9 -7.2,77.5 15.3,123.8 59.5,122.7 284,103.4 347.5,74.7 24.4,-11 43.9,-25.4 59.6,-37 l 7.1,-5.2 c 135.4,-98.2 357.2,-139.2 641.3,-118.4 204.9,15.1 399.1,77.7 604.7,144 30.1,9.8 60.3,19.5 90.6,29.1 466.5,147.9 838.4,110.3 1105.4,-111.8 136.1,-113.2 234.4,-277.6 284.3,-475.6 20,-79.1 31.2,-164.5 35.3,-268.7 0.7,-18.8 0.6,-36.6 0.4,-52.4 -0.6,-57.5 0.2,-76.8 22.6,-100.6 47.2,-50.1 126.8,-88.9 203.8,-126.4 42.6,-20.8 86.7,-42.3 126.7,-66.4 45.8,-27.5 108,-75.1 120.7,-170.3 4.9,-36.3 2,-69.7 -0.4,-99.2 l -0.8,-9.2 c -4,-49.3 -7.3,-101.6 -4.1,-149.8 0.5,-6.4 1.6,-14.5 2.7,-23.1 5.6,-41.6 14,-104.4 -26.8,-163.5 -31.5,-45.7 -82.7,-73.8 -152.2,-83.4 -37.7,-5.2 -74.8,-11.9 -114.1,-19 -26.1,-4.7 -53,-9.6 -80.2,-14 -6.3,-1.1 -12.9,-2 -19.5,-2.7 85,-57.8 171,-133.1 197.1,-257.4 30.3,-144 -15,-287.4 -54.9,-413.9 -3.3,-10.5 -6.6,-20.8 -9.8,-31 -19.7,-63.5 -31.7,-115.5 -26.3,-162.7 8.9,-78.1 110.1,-123 309.2,-137.5 115.3,-8.4 208.7,-13.4 294,-15.8 65.3,-1.8 114.6,-20.3 150.7,-56.5 65.9,-66 57.6,-155.3 52.1,-214.4 -1.2,-12.5 -2.3,-24.3 -2.4,-33.2 -0.3,-15.7 2.1,-27.1 4.2,-33.2 6.4,1.1 17.6,4.5 30.6,12.5 44,27.1 88.7,56.4 132,84.8 85.6,56.3 174.2,114.5 269.1,162.8 104.6,53.3 208.8,62.6 293.4,26.3 74.4,-31.9 123.9,-95.8 163.6,-147.2 13.6,-17.6 26.4,-34.2 38.6,-47.5 60,-65.8 129.2,-145.4 187.7,-236.9 146.4,-230.3 132.3,-481.3 118.7,-724.1 l -0.3,-4.9 c -1.8,-32.6 -6.1,-61.8 -10.3,-90 -7.3,-48.6 -13,-87 -3.7,-127.5 3,-13.5 6.6,-27.1 10.4,-41.6 11.5,-44.2 24.5,-94.2 25.3,-148.4 1.2,-81.9 -36.2,-150.8 -66.1,-206.2 -3.7,-6.8 -7.4,-13.6 -11,-20.3 -15.6,-29.7 -33.2,-67.3 -29.6,-94.8 l 0.8,-6.2 v -5.5 c 2.5,-12.1 27,-40.3 40.2,-55.5 6.7,-7.6 13.1,-15 18.9,-22.1 l 123.2,-150.8 c 49.2,-60.3 98.4,-120.6 147.4,-180.9 12.9,-15.8 23.8,-31.9 33.4,-46.1 8.6,-12.7 16.9,-24.8 25,-34.6 1.7,0.8 3.2,1.6 4.3,2.2 101.1,52.4 202,99.5 300,140.2 18.3,7.5 37.1,17.1 57.1,27.2 33.9,17.2 69,35.1 109.8,47.8 71.6,22.5 141.5,22.4 202,-0.1 82,-30.5 133.9,-95.1 175.5,-146.9 8.2,-10.2 16.3,-20.3 24.5,-29.9 42.2,-49.5 92.5,-93.3 149.4,-130.1 122.6,-79.2 249.9,-107.6 439.4,-97.9 181.9,9.3 364.6,33.4 543,71.5 236.2,50.5 435.3,120.3 626.8,219.9 113.9,59.1 251.2,123.1 405.6,149.1 47.1,7.9 157.6,26.5 225.9,-85.3 37.1,-60.8 47.8,-132.5 57.3,-195.7 4.4,-29.8 8.6,-57.9 14.9,-80.3 99.2,-354.6 354.5,-641.7 601.4,-919.4 18.3,-20.6 36.5,-41 54.6,-61.5 17,-19.2 39.8,-45 57.8,-52.6 12.2,8.3 32.9,34.3 44.5,49 10.5,13.1 21.2,26.6 32.9,39.1 l 190.9,204.5 c 25.8,27.6 61.1,65.5 112.4,86.6 142.1,58.6 231.4,-70.1 269.5,-125 3,-4.3 5.9,-8.5 8.7,-12.5 39.7,-56.1 88.2,-88 148.4,-97.4 35.8,-5.7 74.5,-3.5 115.6,-1.2 47.5,2.6 96.6,5.3 150.1,-2.5 87.7,-12.7 171.9,-47.4 250.3,-103.1 75.4,-53.5 146,-122.1 209.9,-203.9 36.5,-46.7 63.8,-87.7 85.5,-128.4 24,16.8 48.1,33.6 72.2,50.4 72.9,50.7 148.3,103.2 219.7,156.8 l 1.9,1.4 c 18.8,13.4 76,54.2 142.3,38.1 36.4,-8.7 66.4,-32.8 84.5,-67.7 16.3,-31.3 17.6,-61.5 18.5,-81.5 l 0.1,-1.3 c 0.5,-10.3 0.9,-20.9 1.3,-31.8 3.8,-100.7 8.2,-214.8 70.6,-263.1 39.3,-30.4 100.6,-30.8 176.7,-28.1 31.8,1.1 63.6,2.3 95.4,3.5 66,2.4 131.9,4.8 197.9,6.9 104.2,3.5 169.2,-98.6 212,-166.2 6.9,-10.9 13.3,-21.1 17.7,-27.2 17.8,-24.6 35.6,-49.4 53.3,-74.2 34.4,-48.1 69.9,-97.8 105.6,-145.6 4.3,-5.7 8.4,-11.6 12.6,-17.6 2.3,-3.4 5.4,-7.8 8.1,-11.6 4.1,1.1 10,2.8 18.3,5.9 10.3,3.7 30.8,13 52.6,22.7 177.2,79.8 345.4,145.1 455.9,70.5 30.1,-20.4 79.9,-69.5 75.8,-170 -2.5,-62.4 -30.1,-115.3 -56.8,-158.9 -2.8,-4.5 -5.6,-9.1 -8.5,-13.7 -15.5,-25 -30.2,-48.6 -35.4,-69 -18.7,-72.5 19.1,-201.6 44.1,-286.9 l 4.7,-16.2 c 19.9,-68.4 43,-125.5 70.6,-174.4 6,-10.6 17,-23.2 28.6,-36.6 11.7,-13.5 25,-28.8 37.3,-46.6 64.2,-93.2 34.6,-154.6 -4.3,-214.4 -108.2,-166.5 -261.6,-369.5 -489.1,-461.6 -55.2,-22.4 -110.7,-27.4 -159.7,-31.8 -43,-3.9 -80.2,-7.3 -109.9,-20.6 -21.8,-9.7 -30.2,-27 -33.3,-39.8 -5.7,-22.7 0.1,-48 15.4,-67.6 l 20.2,-25.8 v -8.7 c 9.2,-3.9 24.6,-9 49.1,-13.8 v 0.1 c 72.6,-14.2 167.4,-14.5 207.4,-12.7 4.8,0.2 9.7,0.5 14.5,0.7 38.5,2.1 86.5,4.6 135.7,-11.9 70.5,-23.7 119.2,-82.6 124.2,-150.2 4.7,-63.7 -31,-123 -93.3,-154.6 -50,-25.5 -105.5,-35.4 -154.4,-44.2 -34.9,-6.2 -67.9,-12.1 -93.1,-22.3 -102.4,-41.4 -162.1,-121.5 -168.2,-225.8 -7.5,-129.2 30.9,-272 114.2,-424.4 35.2,-64.5 78.1,-130.3 130.9,-201.2 6.3,-8.3 19.1,-20.8 31.5,-32.9 37.8,-36.8 84.8,-82.6 97.2,-148.5 7.4,-39.7 -1.3,-78.7 -24.7,-109.6 -30.6,-40.5 -77.7,-58.1 -126,-67.2 37.9,-27.7 73.6,-63.2 96.1,-113.7 62.2,-139.8 -25,-247 -82.7,-317.9 -12.5,-15.4 -24.4,-30 -33.8,-43.4 -53.2,-75.8 -91.7,-159.8 -114.5,-249.7 -15.6,-61.6 -24.8,-118 -28,-172.3 -0.2,-5.1 1.9,-20.4 3.4,-30.5 7.2,-51.4 20.6,-147.1 -60.6,-203.4 -57.9,-40 -131,-42 -189.7,-43.5 -13.1,-0.3 -25.5,-0.7 -35.1,-1.4 -69.5,-5.5 -141.7,-10.7 -214.7,-15.5 -133.9,-8.8 -271,-16.3 -419.3,-23 l -36.8,-1.6 c -140.7,-6.3 -286.1,-12.9 -429.5,-17.2 -84.9,-2.5 -161.6,-4.1 -234.5,-4.9 -13.7,-0.2 -27.6,0.8 -41.1,1.6 -11.8,0.7 -31.2,2 -44.1,1.2 -1,-7.9 -1.1,-22.5 3.3,-48.1 11,-62.5 10.4,-124.6 8.6,-171.7 -0.6,-14.9 -0.1,-31.3 0.4,-48.7 0.7,-26.8 1.5,-54.6 -1.1,-83.8 -5.1,-55.2 -32.1,-102.9 -74.1,-130.8 -35.7,-23.7 -74.3,-27.7 -97.3,-30.1 -72.7,-7.6 -146.7,-15.9 -218.4,-24 -131,-14.8 -266.5,-30.1 -400.8,-41.4 -0.2,0 -0.4,0 -0.6,0 -0.1,-1.9 -0.2,-3.6 -0.3,-5.1 -2.9,-62.4 -6.5,-125.5 -10.1,-186.6 -1.7,-29.8 -3.5,-59.7 -5.1,-89.6 -5.2,-92.7 -15.4,-156.2 -56.9,-246.2 -33.8,-73.1 -41.4,-158.9 -49.5,-249.8 -1.8,-21.2 -3.7,-42.4 -5.9,-63.3 -12.7,-121.3 -31.2,-243.3 -49,-361.4 l -1.6,-10.6 c -9,-63.3 -50.2,-111 -113.3,-131 -37.3,-11.8 -76.4,-12.4 -110.1,-11.9 -55.4,0.7 -110.8,1.3 -166.2,2 -107,1.2 -214,2.5 -321,4.1 -28.4,0.4 -56.8,1.2 -85.2,2 -50.4,1.4 -98.1,2.8 -145.9,2.1 -27.4,-0.4 -53.9,3.7 -77.3,7.3 -19.1,3 -45.3,7.1 -55.6,4.8 -13.5,-3.8 -46,-33.1 -63.5,-48.9 -12.3,-11 -24.9,-22.4 -37.6,-32.4 -54.1,-42.9 -108.4,-89.7 -160.9,-134.9 -83,-71.5 -168.8,-145.4 -261.1,-210.6 -126.8,-89.4 -271,-167.1 -453.9,-244.5 -159,-67.4 -322.2,-130 -479.9,-190.5 -61.2,-23.5 -122.3,-47 -183.4,-70.8 -19.8,-7.7 -39.6,-15.2 -59.2,-22.6 -69.3,-26.2 -134.7,-50.9 -197.5,-85 -9.8,-5.4 -19.7,-10.8 -29.6,-16.2 -76.2,-41.9 -155.1,-85.2 -245.7,-110.6 -124,-34.7 -247.1,-31.4 -366.2,-28.2 -16.2,0.4 -32.4,0.8 -48.6,1.2 -81.3,1.6 -164.7,1.1 -245.3,0.5 -41.8,-0.3 -83.6,-0.6 -125.3,-0.6 -8.9,0 -27.4,0 -34,-2 -11.9,-8.5 -26.9,-45 -37,-69.3 -10.9,-26.4 -22.2,-53.7 -38.4,-79.4 -150.7,-239.2 -360.7,-334.4 -576.1,-261.1 -102.3,34.8 -185.5,103.1 -237.4,187.6 -0.2,-4 -0.4,-8 -0.5,-11.9 -4.3,-91.1 -8.7,-185.2 -12.5,-277.7 -1,-24.6 -2.7,-65.6 -26.9,-104.3 -23.3,-37.3 -62.1,-63.7 -109.3,-74.5 -71.6,-16.3 -143.5,-26.3 -213.1,-35.9 l -1.7,-0.2 c -9.4,-1.3 -19,-2.2 -28.6,-3.1 -4.7,-0.4 -10.5,-1 -15.9,-1.6 -0.3,-7.4 -0.2,-16.2 -0.1,-24.4 0.1,-10.1 0.2,-21.5 -0.3,-33.4 -3.7,-86.4 -42.5,-205.1 -139.7,-255.5 -54,-28 -109.9,-32.1 -155.6,-32.3 40.8,-108.5 87.5,-264 -7.4,-366.3 -58.7,-63.4 -153.1,-86.9 -258.8,-64.5 -26.4,5.7 -53.1,16.4 -79,26.8 -17.5,7.1 -47.2,19.1 -65.6,22.9 -0.5,-1.3 -0.9,-2.9 -1.3,-4.6 -25.1,-99 10.8,-218.8 46.3,-323.4 47.7,-138.3 104.2,-220.5 183.1,-266.3 54.4,-31.5 108.1,-66 160,-99.3 81.9,-52.6 159.2,-102.2 239.9,-141.9 122.6,-60.5 208.9,-193.5 236.7,-364.9 12.9,-80 6.7,-153 0.6,-223.5 -3.7,-43 -7.1,-83.6 -6,-123.7 0.3,-10.2 0.5,-20.7 0.7,-31.5 1.5,-79.3 3.4,-178 46.3,-219.8 35.6,-34.7 84.8,-30.9 181,-14.6 l 487.4,82.1 c 24.3,4.3 49.1,7.7 73.1,11 27.3,3.8 53.2,7.3 78.2,12.2 30.3,6 60.2,23.5 94.8,43.8 5.8,3.4 11.5,6.8 17.3,10.1 96.2,55.6 191.1,116 282.3,179.4 35.6,24.8 72.4,55.4 111.4,87.8 121.2,100.8 258.5,215.1 436.4,215.7 0.4,0 0.9,0 1.3,0 157,0 283.8,-95.4 385.8,-172.1 7.8,-5.9 15.5,-11.7 23.2,-17.4 90.5,-67.5 135.6,-157 123.7,-245.5 -7.1,-52.9 -32.7,-101.6 -55.4,-144.5 -12.3,-23.4 -24,-45.6 -30,-63.3 -20.7,-61.2 -35.9,-123.5 -45,-185.4 -3.7,-25 -2.4,-53.9 -1.1,-84.6 1.4,-32.9 3.1,-70.3 -1.3,-109.2 -9.8,-86.9 -41.8,-161.5 -92.8,-215.7 -82.1,-87.5 -190.3,-100.1 -277.2,-110.3 -6.9,-0.8 -13.8,-1.6 -20.6,-2.5 -32.5,-3.9 -65.5,-12.3 -100.6,-21.1 -50.1,-12.6 -101.9,-25.7 -161.1,-29 -111.3,-6.1 -222.7,6 -331.1,36.1 -71.6,19.9 -132.4,50.2 -191.2,79.6 -27.2,13.6 -52.9,26.4 -79.5,38.1 -194.5,86.1 -362.7,117.5 -499.8,93.4 -46.9,-8.3 -73.7,-38.3 -120.8,-95.1 -7.9,-9.5 -15.9,-19.1 -24.2,-28.7 -58.5,-68.1 -105.6,-145.9 -155.4,-228.3 l -4.2,-7 c -71.4,-117.9 -138.3,-222.6 -233.6,-309.5 -81.8,-74.401 -172.9,-107.6 -253.4,-136.998 -76.5,-27.903 -147,-29.903 -215.1,-31.899 -14.2,-0.402 -28.6,-0.801 -43.3,-1.402 C 21648.2,869.402 21490.6,824.301 21351.2,729 21142.7,586.5 20945.3,414 20780.3,230.203 20707.4,149 20616.6,60.8984 20496,24 20434.3,5.10156 20372.1,0 20312.4,0"
         style="fill:#251f11;fill-opacity:1;fill-rule:nonzero;stroke:none"
         id="path12" />
    </g>
  </g>
</svg>
